<svg xmlns="http://www.w3.org/2000/svg" viewBox="0 0 24 24" id="download"><path d="M11.976 5.477a1 1 0 0 0-1 1v5.069L9.078 9.908a1 1 0 0 0-1.308 1.514l3.567 3.081a1 1 0 0 0 1.306.001l3.584-3.081a1 1 0 0 0-1.305-1.516l-1.947 1.674V6.477a.999.999 0 0 0-.999-1zM6.188 16.953a1 1 0 0 0 1 1h9.626a1 1 0 1 0 0-2H7.188a1 1 0 0 0-1 1z"></path><path d="M18 2H6C3.794 2 2 3.794 2 6v1.655a1 1 0 0 0 2 0V6c0-1.103.897-2 2-2h12c1.103 0 2 .897 2 2v12c0 1.103-.897 2-2 2H6c-1.103 0-2-.897-2-2v-6.93a1 1 0 0 0-2 0V18c0 2.206 1.794 4 4 4h12c2.206 0 4-1.794 4-4V6c0-2.206-1.794-4-4-4z"></path></svg>